<?xml version="1.0" encoding="utf-8"?>
<!-- Generator: Adobe Illustrator 21.1.0, SVG Export Plug-In . SVG Version: 6.00 Build 0)  -->
<svg version="1.1" id="Layer_1" xmlns="http://www.w3.org/2000/svg" xmlns:xlink="http://www.w3.org/1999/xlink" x="0px" y="0px"
	 width="32" height="42" viewBox="0 0 30 42" style="enable-background:new 0 0 30 45;" xml:space="preserve">
<style type="text/css">
	.st0{fill:#494949;}
	.st1{fill:#BFBFBF;}
	.st2{fill:#000930;}
</style>
<g>
	<path class="st0" d="M13,43C6.7,43,1.5,37.8,1.5,31.5v-18C1.5,7.2,6.7,2,13,2h4c6.3,0,11.5,5.2,11.5,11.5v18
		C28.5,37.8,23.3,43,17,43H13z"/>
	<path d="M17,2.5c6.1,0,11,4.9,11,11v18c0,6.1-4.9,11-11,11h-4c-6.1,0-11-4.9-11-11v-18c0-6.1,4.9-11,11-11H17 M17,1.5h-4
		c-6.6,0-12,5.4-12,12v18c0,6.6,5.4,12,12,12h4c6.6,0,12-5.4,12-12v-18C29,6.9,23.6,1.5,17,1.5L17,1.5z"/>
</g>
<g>
	<rect x="0.5" y="20.5" class="st1" width="29" height="2"/>
	<path class="st2" d="M29,21v1H1v-1H29 M29.5,20h-29C0.2,20,0,20.2,0,20.5v2C0,22.8,0.2,23,0.5,23h29c0.3,0,0.5-0.2,0.5-0.5v-2
		C30,20.2,29.8,20,29.5,20L29.5,20z"/>
</g>
</svg>
